HIERARCHY
ROOT hip
{
	OFFSET 0.000000 0.000000 0.000000 
	CHANNELS 6 Xposition Yposition Zposition Xrotation Zrotation Yrotation
	JOINT abdomen
	{
		OFFSET 0.000000 3.402643 0.000000 
		CHANNELS 3 Xrotation Zrotation Yrotation
		JOINT chest
		{
			OFFSET 0.000000 8.438565 -0.680529 
			CHANNELS 3 Xrotation Zrotation Yrotation
			JOINT neck
			{
				OFFSET 0.000000 10.207942 -0.272212 
				CHANNELS 3 Xrotation Zrotation Yrotation
				JOINT head
				{
					OFFSET 0.000000 3.130431 0.000000 
					CHANNELS 3 Xrotation Zrotation Yrotation
					End Site
					{
						OFFSET 0.000000 3.130435 0.000000 
					}
				}
			}
			JOINT lCollar
			{
				OFFSET 3.470700 6.669187 -0.816635 
				CHANNELS 3 Yrotation Zrotation Xrotation
				JOINT lShldr
				{
					OFFSET 3.198488 0.000000 0.000000 
					CHANNELS 3 Zrotation Yrotation Xrotation
					JOINT lForeArm
					{
						OFFSET 10.139888 0.000000 0.000000 
						CHANNELS 3 Yrotation Zrotation Xrotation
						JOINT lHand
						{
							OFFSET 8.370511 0.000000 0.000000 
							CHANNELS 3 Zrotation Yrotation Xrotation
							End Site
							{
								OFFSET 4.083176 0.000000 0.000000 
							}
						}
					}
				}
			}
			JOINT rCollar
			{
				OFFSET -3.470700 6.669187 -0.816635 
				CHANNELS 3 Yrotation Zrotation Xrotation
				JOINT rShldr
				{
					OFFSET -3.198488 0.000000 0.000000 
					CHANNELS 3 Zrotation Yrotation Xrotation
					JOINT rForeArm
					{
						OFFSET -10.139888 0.000000 0.000000 
						CHANNELS 3 Yrotation Zrotation Xrotation
						JOINT rHand
						{
							OFFSET -8.370511 0.000000 0.000000 
							CHANNELS 3 Zrotation Yrotation Xrotation
							End Site
							{
								OFFSET -4.083176 0.000000 0.000000 
							}
						}
					}
				}
			}
		}
	}
	JOINT lThigh
	{
		OFFSET 5.308129 -1.633274 1.361059 
		CHANNELS 3 Xrotation Zrotation Yrotation
		JOINT lShin
		{
			OFFSET -2.041588 -20.007561 0.000000 
			CHANNELS 3 Xrotation Zrotation Yrotation
			JOINT lFoot
			{
				OFFSET 0.000000 -19.190928 -1.224953 
				CHANNELS 3 Xrotation Yrotation Zrotation
				End Site
				{
					OFFSET 0.000000 -2.449906 4.627600 
				}
			}
		}
	}
	JOINT rThigh
	{
		OFFSET -5.308129 -1.633274 1.361059 
		CHANNELS 3 Xrotation Zrotation Yrotation
		JOINT rShin
		{
			OFFSET 2.041588 -20.007561 0.000000 
			CHANNELS 3 Xrotation Zrotation Yrotation
			JOINT rFoot
			{
				OFFSET 0.000000 -19.190928 -1.224953 
				CHANNELS 3 Xrotation Yrotation Zrotation
				End Site
				{
					OFFSET 0.000000 -2.449906 4.627600 
				}
			}
		}
	}
}
MOTION
Frames: 10
Frame Time: 0.033333
13.298128 51.393597 42.059052 39.198235 5.360932 1.740103 0.000000 0.000000 0.000000 15.527365 -0.094092 -4.860143 8.297166 -1.448299 -0.018017 -43.622887 -0.044824 5.075033 -10.851436 -15.158572 14.559909 -36.665279 -54.673809 47.714893 -8.335973 3.952180 3.173687 -4.941761 -6.166348 -25.983580 7.325957 17.677961 14.625183 25.857780 43.502605 44.638187 10.892291 -8.420645 5.419658 -0.812610 8.097227 -26.120275 -38.545109 5.644871 12.241195 5.031974 -0.037699 -0.280480 2.007398 8.278660 -11.838031 -48.044987 -18.075594 1.542187 10.764487 1.705968 1.232369 0.480678 -15.081925 11.044089 
13.289405 51.394566 42.055439 39.216202 5.466121 1.681502 0.000000 0.000000 0.000000 15.517614 -0.122325 -4.936329 8.392837 -1.457374 -0.024931 -43.515476 0.008231 5.137969 -10.960594 -15.071827 14.545144 -37.162815 -54.102486 45.076218 -9.262667 3.987628 3.247204 -5.594243 -5.489549 -22.604574 7.414989 17.612810 14.621304 26.364841 43.623108 44.405445 10.630987 -8.420356 5.380617 -0.461193 7.839829 -25.467964 -38.597946 5.622831 12.248148 5.118739 -0.029575 -0.312896 2.051937 8.402470 -11.889769 -48.162315 -18.105122 1.440098 10.861036 1.727125 1.209895 0.424812 -14.820711 10.978813 
13.280943 51.392097 42.061962 39.113960 5.542633 1.639503 0.000000 0.000000 0.000000 15.595728 -0.103467 -4.970304 8.498306 -1.351376 -0.125010 -43.486214 0.052463 5.048910 -10.995724 -15.125007 14.625971 -37.380581 -54.050049 44.908276 -9.495110 3.992134 3.267016 -5.668967 -5.526516 -22.094931 7.353483 17.596329 14.694534 26.619221 43.868988 44.508011 10.459004 -8.417368 5.348243 -0.392500 7.761014 -25.499901 -38.466930 5.615773 12.295762 5.119063 -0.037758 -0.303360 2.080353 8.402173 -11.922237 -48.132439 -18.095257 1.423760 10.922090 1.717771 1.202607 0.363006 -14.714388 10.940499 
13.272483 51.389675 42.068485 39.020954 5.610969 1.581367 0.000000 0.000000 0.000000 15.673843 -0.075220 -5.001587 8.594462 -1.273979 -0.216949 -43.466709 0.079015 4.968155 -11.010009 -15.193285 14.710803 -37.609356 -54.006645 44.729294 -9.715338 4.005261 3.280224 -5.736419 -5.553178 -21.582722 7.309776 17.558527 14.777673 26.898932 44.098103 44.637299 10.298404 -8.415042 5.323820 -0.317323 7.698309 -25.554983 -38.326889 5.604238 12.344884 5.089833 -0.029557 -0.302021 2.126137 8.414466 -11.949661 -48.068600 -18.103161 1.335174 11.000314 1.727431 1.188018 0.300551 -14.555379 10.898623 
13.261908 51.387207 42.065002 38.946331 5.662707 1.542981 0.000000 0.000000 0.000000 15.722660 -0.037601 -4.971529 8.661395 -1.177133 -0.369780 -43.447170 0.079035 4.792402 -11.018073 -15.272093 14.765254 -37.872421 -54.221077 45.108929 -9.777164 4.001967 3.288973 -5.535448 -5.529413 -21.887140 7.281859 17.577209 14.819147 26.951096 44.241955 44.677166 10.277321 -8.413640 5.314646 -0.212013 7.812389 -25.699457 -38.237858 5.604028 12.486959 5.080070 -0.030417 -0.301669 2.181240 8.329957 -11.950918 -48.071953 -18.104309 1.373462 11.080410 1.718031 1.201247 0.286194 -14.570182 10.882296 
13.251376 51.384693 42.061523 38.891300 5.712969 1.505449 0.000000 0.000000 0.000000 15.781251 0.000000 -4.951172 8.728707 -1.092709 -0.502491 -43.437420 0.087893 4.632032 -11.020799 -15.362139 14.829725 -38.157181 -54.437393 45.497757 -9.836290 4.008168 3.289711 -5.326301 -5.497904 -22.178558 7.228168 17.561659 14.878085 27.004944 44.376152 44.724613 10.217074 -8.418694 5.308636 -0.103829 7.907526 -25.840084 -38.149502 5.603514 12.619715 5.041446 -0.019768 -0.290146 2.203996 8.239703 -11.983209 -48.055069 -18.075779 1.427375 11.169237 1.718274 1.205970 0.249881 -14.532162 10.861048 
13.242741 51.379318 42.047859 38.846699 5.770116 1.445593 0.000000 0.000000 0.000000 15.791015 0.000000 -4.941407 8.799248 -1.105468 -0.533436 -43.369022 0.052563 4.580267 -11.008506 -15.361362 14.839389 -38.536991 -54.717224 45.641598 -9.959398 4.011137 3.308029 -5.267266 -5.507350 -22.122152 7.210907 17.652405 14.889937 26.931549 44.438023 44.919434 10.207377 -8.417935 5.308858 -0.049256 7.837194 -25.724360 -38.106873 5.602345 12.810327 5.051573 -0.020644 -0.280789 2.213424 8.116478 -12.006536 -48.111797 -18.065413 1.545541 11.287349 1.718322 1.221990 0.228372 -14.541094 10.856090 
13.234148 51.373898 42.034241 38.802757 5.834941 1.392721 0.000000 0.000000 0.000000 15.820313 0.000000 -4.902344 8.887794 -1.109804 -0.565808 -43.320175 0.017182 4.528414 -11.012494 -15.369802 14.869114 -38.916790 -55.016441 45.775612 -10.070848 4.013095 3.318954 -5.199903 -5.503841 -22.072573 7.206457 17.741144 14.923405 26.856316 44.498894 45.111519 10.197678 -8.417177 5.309083 -0.001490 7.746783 -25.603300 -38.054363 5.595055 13.013701 5.012559 -0.010859 -0.279045 2.198699 8.003140 -11.994925 -48.182552 -18.046627 1.670115 11.397489 1.707531 1.227184 0.164521 -14.594748 10.828780 
13.222425 51.365437 42.018692 38.746559 5.870178 1.313429 0.000000 0.000000 0.000000 15.810549 -0.028189 -4.910331 8.976762 -1.180902 -0.428586 -43.232273 0.008369 4.688791 -11.009221 -15.375138 14.855774 -39.160397 -55.253685 45.768223 -10.262561 4.023462 3.336540 -5.238080 -5.559425 -21.813204 7.232272 17.813595 14.923284 26.816118 44.524796 45.206139 10.217074 -8.418694 5.308636 -0.010971 7.659438 -25.433609 -38.005486 5.643730 13.172249 5.080500 -0.001166 -0.291151 2.121688 7.930644 -11.997381 -48.218647 -17.987331 1.844703 11.494206 1.718588 1.243025 0.122166 -14.692105 10.809699 
13.210705 51.356979 42.003136 38.679958 5.898637 1.226992 0.000000 0.000000 0.000000 15.781261 -0.065783 -4.911180 9.036079 -1.267809 -0.294453 -43.134617 -0.000452 4.829611 -10.981975 -15.365682 14.813472 -39.399563 -55.489620 45.743279 -10.443134 4.023396 3.344442 -5.266967 -5.611399 -21.563255 7.281282 17.885681 14.890779 26.768675 44.540718 45.315666 10.288702 -8.414285 5.324044 -0.031681 7.578434 -25.275303 -37.946041 5.692087 13.340206 5.138289 0.009412 -0.312601 2.042747 7.872427 -12.005485 -48.268021 -17.909136 1.983116 11.583510 1.717397 1.237883 0.113596 -14.759427 10.793440 
